<svg width="35" height="35" viewBox="0 0 35 35" fill="none" xmlns="http://www.w3.org/2000/svg">
<rect opacity="0.3" width="35" height="35" rx="5" fill="white"/>
<path d="M22.993 12.0069C21.5833 10.5972 19.6486 9.72221 17.5 9.72221C15.4372 9.72221 13.4589 10.5416 12.0003 12.0003C10.5417 13.4589 9.72221 15.4372 9.72221 17.5C9.72221 19.5628 10.5417 21.5411 12.0003 22.9997C13.4589 24.4583 15.4372 25.2778 17.5 25.2778C21.1264 25.2778 24.15 22.7986 25.0153 19.4444H22.993C22.1958 21.7097 20.0375 23.3333 17.5 23.3333C15.9529 23.3333 14.4692 22.7187 13.3752 21.6248C12.2812 20.5308 11.6667 19.0471 11.6667 17.5C11.6667 15.9529 12.2812 14.4692 13.3752 13.3752C14.4692 12.2812 15.9529 11.6667 17.5 11.6667C19.1139 11.6667 20.5528 12.3375 21.6028 13.3972L18.4722 16.5278H25.2778V9.72221L22.993 12.0069Z" fill="white"/>
</svg>
